HIERARCHY
ROOT hip
{
  OFFSET 0 0 0
  CHANNELS 6 Xposition Yposition Zposition Zrotation Yrotation Xrotation
  JOINT abdomen
  {
    OFFSET 0 20.6881 -0.73152
    CHANNELS 3 Zrotation Xrotation Yrotation
    JOINT chest
    {
      OFFSET 0 11.7043 -0.48768
      CHANNELS 3 Zrotation Xrotation Yrotation
      JOINT neck
      {
        OFFSET 0 22.1894 -2.19456
        CHANNELS 3 Zrotation Xrotation Yrotation
        JOINT head
        {
          OFFSET -0.24384 7.07133 1.2192
          CHANNELS 3 Zrotation Xrotation Yrotation
          JOINT leftEye
          {
            OFFSET 4.14528 8.04674 8.04672
            CHANNELS 3 Zrotation Xrotation Yrotation
            End Site
            {
              OFFSET 1 0 0
            }
          }
          JOINT rightEye
          {
            OFFSET -3.6576 8.04674 8.04672
            CHANNELS 3 Zrotation Xrotation Yrotation
            End Site
            {
              OFFSET 1 0 0
            }
          }
        }
      }
      JOINT rCollar
      {
        OFFSET -2.68224 19.2634 -4.8768
        CHANNELS 3 Zrotation Xrotation Yrotation
        JOINT rShldr
        {
          OFFSET -8.77824 -1.95073 1.46304
          CHANNELS 3 Zrotation Xrotation Yrotation
          JOINT rForeArm
          {
            OFFSET -28.1742 -1.7115 0.48768
            CHANNELS 3 Zrotation Xrotation Yrotation
            JOINT rHand
            {
              OFFSET -22.5879 0.773209 7.07136
              CHANNELS 3 Zrotation Xrotation Yrotation
              JOINT rThumb1
              {
                OFFSET -1.2192 -0.487915 3.41376
                CHANNELS 3 Zrotation Xrotation Yrotation
                JOINT rThumb2
                {
                  OFFSET -3.37035 -0.52449 3.41376
                  CHANNELS 3 Zrotation Xrotation Yrotation
                  End Site
                  {
                    OFFSET -1.78271 -1.18214 1.43049
                  }
                }
              }
              JOINT rIndex1
              {
                OFFSET -7.75947 0.938293 5.60832
                CHANNELS 3 Zrotation Xrotation Yrotation
                JOINT rIndex2
                {
                  OFFSET -2.54057 -0.884171 1.56538
                  CHANNELS 3 Zrotation Xrotation Yrotation
                  End Site
                  {
                    OFFSET -1.62519 -0.234802 1.16502
                  }
                }
              }
              JOINT rMid1
              {
                OFFSET -8.24714 1.18213 3.41376
                CHANNELS 3 Zrotation Xrotation Yrotation
                JOINT rMid2
                {
                  OFFSET -3.10165 -0.590103 1.0647
                  CHANNELS 3 Zrotation Xrotation Yrotation
                  End Site
                  {
                    OFFSET -2.48547 -0.328903 0.83742
                  }
                }
              }
              JOINT rRing1
              {
                OFFSET -8.82822 0.546677 1.51678
                CHANNELS 3 Zrotation Xrotation Yrotation
                JOINT rRing2
                {
                  OFFSET -2.60934 -0.819778 -0.0198488
                  CHANNELS 3 Zrotation Xrotation Yrotation
                  End Site
                  {
                    OFFSET -2.33842 -0.294052 0.168128
                  }
                }
              }
              JOINT rPinky1
              {
                OFFSET -8.27202 -0.0477905 -0.4584
                CHANNELS 3 Zrotation Xrotation Yrotation
                JOINT rPinky2
                {
                  OFFSET -1.82734 -0.647385 -0.700984
                  CHANNELS 3 Zrotation Xrotation Yrotation
                  End Site
                  {
                    OFFSET -1.69225 -0.51767 -0.607171
                  }
                }
              }
            }
          }
        }
      }
      JOINT lCollar
      {
        OFFSET 2.68224 19.2634 -4.8768
        CHANNELS 3 Zrotation Xrotation Yrotation
        JOINT lShldr
        {
          OFFSET 8.77824 -1.95073 1.46304
          CHANNELS 3 Zrotation Xrotation Yrotation
          JOINT lForeArm
          {
            OFFSET 28.1742 -1.7115 0.48768
            CHANNELS 3 Zrotation Xrotation Yrotation
            JOINT lHand
            {
              OFFSET 22.5879 0.773209 7.07136
              CHANNELS 3 Zrotation Xrotation Yrotation
              JOINT lThumb1
              {
                OFFSET 1.2192 -0.487915 3.41376
                CHANNELS 3 Zrotation Xrotation Yrotation
                JOINT lThumb2
                {
                  OFFSET 3.37035 -0.52449 3.41376
                  CHANNELS 3 Zrotation Xrotation Yrotation
                  End Site
                  {
                    OFFSET 1.78271 -1.18214 1.43049
                  }
                }
              }
              JOINT lIndex1
              {
                OFFSET 7.75947 0.938293 5.60832
                CHANNELS 3 Zrotation Xrotation Yrotation
                JOINT lIndex2
                {
                  OFFSET 2.54057 -0.884171 1.56538
                  CHANNELS 3 Zrotation Xrotation Yrotation
                  End Site
                  {
                    OFFSET 1.62519 -0.234802 1.16502
                  }
                }
              }
              JOINT lMid1
              {
                OFFSET 8.24714 1.18213 3.41376
                CHANNELS 3 Zrotation Xrotation Yrotation
                JOINT lMid2
                {
                  OFFSET 3.10165 -0.590103 1.0647
                  CHANNELS 3 Zrotation Xrotation Yrotation
                  End Site
                  {
                    OFFSET 2.48547 -0.328903 0.83742
                  }
                }
              }
              JOINT lRing1
              {
                OFFSET 8.82822 0.546677 1.51678
                CHANNELS 3 Zrotation Xrotation Yrotation
                JOINT lRing2
                {
                  OFFSET 2.60934 -0.819778 -0.0198488
                  CHANNELS 3 Zrotation Xrotation Yrotation
                  End Site
                  {
                    OFFSET 2.33842 -0.294052 0.168128
                  }
                }
              }
              JOINT lPinky1
              {
                OFFSET 8.27202 -0.0477905 -0.4584
                CHANNELS 3 Zrotation Xrotation Yrotation
                JOINT lPinky2
                {
                  OFFSET 1.82734 -0.647385 -0.700984
                  CHANNELS 3 Zrotation Xrotation Yrotation
                  End Site
                  {
                    OFFSET 1.69225 -0.51767 -0.607171
                  }
                }
              }
            }
          }
        }
      }
    }
  }
  JOINT rButtock
  {
    OFFSET -8.77824 4.35084 1.2192
    CHANNELS 3 Zrotation Xrotation Yrotation
    JOINT rThigh
    {
      OFFSET 0 -1.70687 -2.19456
      CHANNELS 3 Zrotation Xrotation Yrotation
      JOINT rShin
      {
        OFFSET 0 -36.8199 0.73152
        CHANNELS 3 Zrotation Xrotation Yrotation
        JOINT rFoot
        {
          OFFSET 0.73152 -45.1104 -5.12064
          CHANNELS 3 Zrotation Xrotation Yrotation
          End Site
          {
            OFFSET -1.1221 -3.69964 12.103
          }
        }
      }
    }
  }
  JOINT lButtock
  {
    OFFSET 8.77824 4.35084 1.2192
    CHANNELS 3 Zrotation Xrotation Yrotation
    JOINT lThigh
    {
      OFFSET 0 -1.70687 -2.19456
      CHANNELS 3 Zrotation Xrotation Yrotation
      JOINT lShin
      {
        OFFSET 0 -36.8199 0.73152
        CHANNELS 3 Zrotation Xrotation Yrotation
        JOINT lFoot
        {
          OFFSET -0.73152 -45.1104 -5.12064
          CHANNELS 3 Zrotation Xrotation Yrotation
          End Site
          {
            OFFSET 1.1221 -3.69964 12.103
          }
        }
      }
    }
  }
}
MOTION
Frames:	4
Frame Time:	0.00833333
47.5031 79.0876 -12.6092 35.2247 -264.378 -326.261 3.95457 11.0371 -7.22342 4.53728 -2.60967 -1.74912 -14.1224 6.07771 -10.1927 13.4885 -16.7508 -15.6903 -0.0 0.0 0.0 -0.0 0.0 0.0 2.7051e-14 -2.00969e-12 8.32702e-14 71.6971 -6.06299 -3.30304 -12.9095 -6.10752 23.3842 -0.0505836 -6.40003 -0.903278 7.80797e-10 -6.94661e-10 6.97784e-10 1.347e-09 -1.20189e-09 1.2087e-09 7.80804e-10 -6.94666e-10 6.97769e-10 7.73091 5.47488 0.417314 7.80799e-10 -6.94669e-10 6.9778e-10 2.90554 0.965183 0.102902 7.80804e-10 -6.94667e-10 6.9778e-10 10.2786 0.731801 0.0259123 7.80793e-10 -6.94664e-10 6.97789e-10 2.22167 -0.733487 -0.20892 2.72063e-14 -2.0097e-12 8.31192e-14 -82.0671 -6.499 -1.89624 13.1958 -6.32314 -23.9502 0.132027 10.3242 -1.46695 -1.10794e-10 -3.92221e-11 -8.26809e-10 -1.97813e-10 -6.49e-11 -1.42841e-09 -1.10795e-10 -3.92195e-11 -8.26806e-10 -7.73091 5.47488 -0.417314 -1.10793e-10 -3.92234e-11 -8.26821e-10 -2.90554 0.965183 -0.102902 -1.10802e-10 -3.92204e-11 -8.26812e-10 -10.2786 0.731801 -0.0259123 -1.10791e-10 -3.92214e-11 -8.2682e-10 -2.22167 -0.733487 0.20892 -2.03217e-16 0.0 -3.88251e-19 -9.44591 -21.5081 12.4094 -0.198129 34.3398 0.721907 -0.393368 -10.6516 -3.26056 2.03217e-16 0.0 3.88251e-19 22.5672 -9.46825 -5.21343 0.104562 22.5581 -0.356712 -2.36586 -11.0227 -7.81701
47.3643 78.7745 -13.3095 33.7848 -264.868 -327.97 3.70985 11.4863 -7.47787 4.64761 -2.78935 -1.81187 -14.1727 5.84525 -10.321 13.3883 -16.3815 -15.9342 -0.0 0.0 0.0 -0.0 0.0 0.0 2.61776e-14 -1.14589e-12 7.16122e-14 71.8437 -5.29912 -2.71539 -13.0372 -6.20315 23.6361 -0.0486976 -6.28528 -0.886934 8.14928e-10 -7.80527e-10 7.8636e-10 1.40568e-09 -1.35038e-09 1.36171e-09 8.14936e-10 -7.80532e-10 7.86344e-10 7.73091 5.47488 0.417314 8.14929e-10 -7.80534e-10 7.86354e-10 2.90554 0.965183 0.102902 8.14937e-10 -7.80533e-10 7.86356e-10 10.2786 0.731801 0.0259123 8.14926e-10 -7.80531e-10 7.86364e-10 2.22167 -0.733487 -0.20892 2.6353e-14 -1.1459e-12 7.14631e-14 -81.9735 -5.65724 -2.50382 13.2344 -6.35296 -24.0261 0.142246 10.6902 -1.52027 3.76641e-11 -4.24636e-11 -9.02136e-10 5.85715e-11 -7.15752e-11 -1.55972e-09 3.76641e-11 -4.24608e-11 -9.02133e-10 -7.73091 5.47488 -0.417314 3.76657e-11 -4.24652e-11 -9.02148e-10 -2.90554 0.965183 -0.102902 3.76549e-11 -4.24615e-11 -9.02137e-10 -10.2786 0.731801 -0.0259123 3.76677e-11 -4.24624e-11 -9.02145e-10 -2.22167 -0.733487 0.20892 -2.03217e-16 0.0 -3.88251e-19 -10.2034 -21.491 12.5969 -0.200848 34.5702 0.72663 -0.347477 -10.6666 -3.12214 2.03217e-16 0.0 3.88251e-19 22.0874 -9.33653 -4.0677 0.110979 23.0824 -0.352784 -2.88697 -12.2237 -9.01307
47.421 78.638 -14.5212 12.3134 -265.695 -349.898 3.22158 11.9695 -8.02005 4.77838 -2.86979 -1.96671 -14.2684 5.63088 -10.248 13.4205 -16.1556 -15.7425 -0.0 0.0 0.0 -0.0 0.0 0.0 1.80821e-14 -9.58196e-13 7.29152e-14 71.9487 -4.23973 -2.04241 -13.1508 -6.28896 23.8609 -0.050873 -6.43324 -0.907971 7.17264e-10 -7.2019e-10 7.00426e-10 1.23723e-09 -1.24626e-09 1.21314e-09 7.1727e-10 -7.20193e-10 7.00413e-10 7.73091 5.47488 0.417314 7.17264e-10 -7.20195e-10 7.00421e-10 2.90554 0.965183 0.102902 7.17271e-10 -7.20195e-10 7.00424e-10 10.2786 0.731801 0.0259123 7.17261e-10 -7.20193e-10 7.0043e-10 2.22167 -0.733487 -0.20892 1.82156e-14 -9.58204e-13 7.27459e-14 -81.8767 -4.74622 -3.06309 13.3203 -6.41938 -24.1953 0.146718 10.8377 -1.54184 3.12821e-11 -3.18634e-11 -7.93777e-10 4.82388e-11 -5.33963e-11 -1.37249e-09 3.12814e-11 -3.18618e-11 -7.93774e-10 -7.73091 5.47488 -0.417314 3.12836e-11 -3.18651e-11 -7.93788e-10 -2.90554 0.965183 -0.102902 3.12733e-11 -3.18617e-11 -7.93779e-10 -10.2786 0.731801 -0.0259123 3.12853e-11 -3.18617e-11 -7.93786e-10 -2.22167 -0.733487 0.20892 -2.03217e-16 0.0 -3.88251e-19 -11.4979 -21.1061 12.4738 -0.200179 34.6033 0.724753 -0.274747 -10.7414 -2.87053 2.03217e-16 0.0 3.88251e-19 20.9464 -9.08648 -3.75229 0.11711 23.5353 -0.351811 -3.16741 -13.2929 -9.35894
47.5229 78.6433 -15.6227 -2.1762 -265.721 -364.817 2.56003 12.4809 -8.779 4.92334 -2.88908 -2.18964 -14.3906 5.41382 -10.0474 13.5389 -15.9981 -15.2734 -0.0 0.0 0.0 -0.0 0.0 0.0 5.95195e-15 -6.96678e-13 7.16619e-14 72.0208 -2.96552 -1.31842 -13.2603 -6.37224 24.0782 -0.056473 -6.78648 -0.958266 4.49702e-10 -3.96994e-10 4.12438e-10 7.76235e-10 -6.87094e-10 7.14712e-10 4.49705e-10 -3.96996e-10 4.12428e-10 7.73091 5.47488 0.417314 4.49702e-10 -3.96998e-10 4.12436e-10 2.90554 0.965183 0.102902 4.49707e-10 -3.96999e-10 4.12438e-10 10.2786 0.731801 0.0259123 4.49697e-10 -3.96996e-10 4.12442e-10 2.22167 -0.733487 -0.20892 6.00353e-15 -6.96687e-13 7.14569e-14 -81.7467 -3.79039 -3.58834 13.4373 -6.51004 -24.4273 0.147465 10.8545 -1.54435 -2.05754e-11 -6.41831e-11 -5.12058e-10 -3.96365e-11 -1.09628e-10 -8.85454e-10 -2.05776e-11 -6.41834e-11 -5.12053e-10 -7.73091 5.47488 -0.417314 -2.05741e-11 -6.41847e-11 -5.12063e-10 -2.90554 0.965183 -0.102902 -2.05825e-11 -6.41821e-11 -5.12059e-10 -10.2786 0.731801 -0.0259123 -2.0573e-11 -6.41808e-11 -5.12065e-10 -2.22167 -0.733487 0.20892 -2.03217e-16 0.0 -3.88251e-19 -13.172 -20.4554 12.1294 -0.196798 34.4821 0.717714 -0.184866 -10.8447 -2.55079 2.03217e-16 0.0 3.88251e-19 19.3229 -8.77248 -4.00321 0.123341 23.9529 -0.35227 -3.23078 -14.2786 -9.0546
